# xmcd CD database file
#
# Track frame offsets:
#	150
#	16467
#	28423
#	43033
#	55797
#	71938
#	86128
#	102472
#	117036
#	134179
#	146370
#	162306
#
# Disc length: 2423 seconds
#
# Revision: 0
# Processed by: cddbd v1.5.2PL0 Copyright (c) Steve Scherf et al.
# Submitted via: CDex 1.70beta2
#
DISCID=b409750c
DTITLE=C J Baker - C J Baker
DYEAR=2005
DGENRE=Country
TTITLE0=Hand On My Shoulder
TTITLE1=You Don't Owe Me, Sugar
TTITLE2=I Know An Angel When I See One
TTITLE3=Keeper Of The Day
TTITLE4=August
TTITLE5=Big Bottom Buns
TTITLE6=Amigos
TTITLE7=Cooler Cause We're Older
TTITLE8=Thoughtless Moment
TTITLE9=One By One
TTITLE10=Three Things I Can Say
TTITLE11=Flannel PJ Blues
EXTD=YEAR: 2005
EXTT0=
EXTT1=
EXTT2=
EXTT3=
EXTT4=
EXTT5=
EXTT6=
EXTT7=
EXTT8=
EXTT9=
EXTT10=
EXTT11=
PLAYORDER=
